<?xml version="1.0" encoding="UTF-8" standalone="no"?>
<svg width="25px" height="18px" viewBox="0 0 25 18" version="1.1" xmlns="http://www.w3.org/2000/svg">
    <defs></defs>
    <g id="Page-1" stroke="none" stroke-width="1" fill="none" fill-rule="evenodd">
        <g id="compare-small">
            <g id="Group-17" transform="translate(1.000000, 2.000000)">
                <g id="Group-15">
                    <g id="Group-8-Copy" transform="translate(7.600315, 0.750000)"></g>
                    <ellipse id="Oval-3-Copy-2" stroke="currentColor" cx="7.38712813" cy="7.24589686" rx="7.38712813" ry="7.24589686"></ellipse>
                </g>
                <path d="M5.33526506,7.194375 L4.6067749,5.3145 C4.55433246,5.18624936 4.50189082,5.02425098 4.44944838,4.8285 C4.42436722,4.92525048 4.39871641,5.01524958 4.3724952,5.0985 C4.34627398,5.18175042 4.32062317,5.25599967 4.29554201,5.32125 L3.57047199,7.194375 L5.33526506,7.194375 Z M6.77514468,9 L6.21424146,9 C6.1503985,9 6.09795685,8.98425016 6.05691494,8.95275 C6.01587304,8.92124984 5.98623211,8.88075025 5.96799126,8.83125 L5.53363328,7.707375 L3.36868363,7.707375 L2.93432564,8.83125 C2.9183649,8.87400021 2.88872397,8.91281233 2.84540196,8.9476875 C2.80207995,8.98256267 2.74963831,9 2.68807545,9 L2.12717222,9 L4.08349323,4.1535 L4.81882368,4.1535 L6.77514468,9 Z" id="A" fill="currentColor"></path>
                <ellipse id="Oval-3-Copy-3" stroke="currentColor" cx="15.5129691" cy="7.24589686" rx="7.38712813" ry="7.24589686"></ellipse>
            </g>
        </g>
    </g>
</svg>
