<svg xmlns="http://www.w3.org/2000/svg" xmlns:xlink="http://www.w3.org/1999/xlink" width="38" height="25" version="1.1" viewBox="0 0 38 25"><title>compare copy</title><desc>Created with Sketch.</desc><g id="All" fill="none" fill-rule="evenodd" stroke="none" stroke-width="1"><g id="compare-copy"><g id="Group-17" transform="translate(2.000000, 2.000000)"><g id="Group-15"><ellipse id="Oval-3-Copy-3" cx="22.932" cy="10.627" stroke="currentColor" stroke-width="1.5" rx="10.92" ry="10.627"/><ellipse id="Oval-3-Copy-2" cx="10.92" cy="10.627" stroke="currentColor" stroke-width="1.5" rx="10.92" ry="10.627"/></g></g><path id="B-Copy-4" fill="currentColor" d="M29.457083,14.247732 C29.7273798,14.247732 29.9602223,14.2167949 30.1556176,14.1549197 C30.3510128,14.0930446 30.5113974,14.0059322 30.636776,13.8935799 C30.7621546,13.7812276 30.8541518,13.6477095 30.9127704,13.4930216 C30.971389,13.3383337 31.0006978,13.1681796 31.0006978,12.9825541 C31.0006978,12.6210729 30.8720646,12.3353116 30.6147941,12.1252617 C30.3575237,11.9152118 29.9716239,11.8101884 29.457083,11.8101884 L27.9427774,11.8101884 L27.9427774,14.247732 L29.457083,14.247732 Z M27.9427774,8.74738311 L27.9427774,11.1360782 L29.1933008,11.1360782 C29.4603409,11.1360782 29.6923693,11.1067693 29.8893929,11.0481507 C30.0864164,10.9895322 30.2492434,10.9081187 30.3778786,10.8039079 C30.5065138,10.6996971 30.6017675,10.5735062 30.6636427,10.4253315 C30.7255179,10.2771567 30.756455,10.1151439 30.756455,9.93928821 C30.756455,9.52570158 30.6327065,9.22365762 30.3852059,9.03314724 C30.1377052,8.84263687 29.7534336,8.74738311 29.2323796,8.74738311 L27.9427774,8.74738311 Z M29.2323796,8 C29.6622492,8 30.0326805,8.042335 30.3436846,8.12700628 C30.6546887,8.21167756 30.910327,8.33216949 31.1106071,8.48848569 C31.3108873,8.6448019 31.4582456,8.83612355 31.5526867,9.06245639 C31.6471277,9.28878922 31.6943475,9.54361338 31.6943475,9.8269365 C31.6943475,9.99953564 31.6674811,10.164805 31.6137474,10.3227495 C31.5600137,10.480694 31.4794144,10.6280524 31.371947,10.764829 C31.2644796,10.9016057 31.1285191,11.02454 30.9640614,11.1336357 C30.7996037,11.2427314 30.6066538,11.3314721 30.3852059,11.3998604 C30.8997467,11.4975581 31.2864607,11.6807384 31.5453594,11.9494068 C31.8042581,12.2180753 31.9337055,12.5705956 31.9337055,13.0069784 C31.9337055,13.3033278 31.8791585,13.5736206 31.7700628,13.8178646 C31.6609671,14.0621087 31.5013967,14.2721554 31.2913468,14.4480112 C31.0812969,14.6238669 30.8232162,14.7598274 30.517097,14.8558967 C30.2109778,14.9519661 29.8625281,15 29.4717376,15 L27,15 L27,8 L29.2323796,8 Z"/></g></g></svg>