/* XPM */
static char * smartcard_xpm[] = {
"24 24 6 1",
" 	c None",
".	c #CFCCC8",
"+	c #8F8D8B",
"@	c #FFFFFF",
"#	c #FFD700",
"$	c #FF9D00",
"                        ",
"                        ",
"                        ",
"                        ",
"                        ",
" .+++++++++++++++++++.  ",
".+@@@@@@@@@@@@@@@@@@@+. ",
"+@@@@@@@@@@@@@@@@@@@@@+ ",
"+@@@@@@@@@@@@@@@@@@@@@+ ",
"+@@###$@@@@@@@@@@@@@@@+ ",
"+@@$###@@@@@@@@@@@@@@@+ ",
"+@@###$@@@@@@@@@@@@@@@+ ",
"+@@$###@@@@@@@@@@@@@@@+ ",
"+@@@@@@@@@@@@@@@@@@@@@+ ",
"+@@@@@@@@@@@@@@@@@@@@@+ ",
"+@@@@@@@@@@@@@@@@@@@@@+ ",
"+@@@@@@@@@@@@@@@@@@@@@+ ",
"+@@@@@@@@@@@@@@@@@@@@@+ ",
".+@@@@@@@@@@@@@@@@@@@+. ",
" .+++++++++++++++++++.  ",
"                        ",
"                        ",
"                        ",
"                        "};
