<svg xmlns="http://www.w3.org/2000/svg" xmlns:xlink="http://www.w3.org/1999/xlink" width="515" height="552" contentScriptType="application/ecmascript" contentStyleType="text/css" style="width:515px;height:552px" preserveAspectRatio="none" version="1.1" viewBox="0 0 515 552" zoomAndPan="magnify"><g><text x="76.5" y="17.402" fill="#000" font-family="sans-serif" font-size="18" lengthAdjust="spacingAndGlyphs" textLength="369">Context diagram for the Gradle Kotlin DSL</text><rect style="stroke:#8a8a8a;stroke-width:1.5" width="157" height="145" x="283" y="200.699" fill="#999"/><text x="299" y="216.234" fill="#000" font-family="sans-serif" font-size="14" font-style="italic" lengthAdjust="spacingAndGlyphs" textLength="125">«external_system»</text><text x="291" y="234.656" fill="#FFF" font-family="sans-serif" font-size="16" font-weight="bold" lengthAdjust="spacingAndGlyphs" textLength="141">Gradle Build Tool</text><rect style="stroke:#3c7fc0;stroke-width:1.5" width="104" height="52.977" x="292" y="284.699" fill="#1168BD"/><text x="318" y="306.301" fill="#FFF" font-family="sans-serif" font-size="12" font-style="italic" lengthAdjust="spacingAndGlyphs" textLength="52">«system»</text><text x="302" y="324.301" fill="#FFF" font-family="sans-serif" font-size="16" font-weight="bold" lengthAdjust="spacingAndGlyphs" textLength="84">Kotlin DSL</text><rect style="stroke:#073b6f;stroke-width:1.5" width="220" height="102.441" x="158" y="29.699" fill="#08427B"/><text x="242" y="51.301" fill="#FFF" font-family="sans-serif" font-size="12" font-style="italic" lengthAdjust="spacingAndGlyphs" textLength="52">«person»</text><text x="227" y="69.301" fill="#FFF" font-family="sans-serif" font-size="16" font-weight="bold" lengthAdjust="spacingAndGlyphs" textLength="82">Developer</text><text x="168" y="102.699" fill="#FFF" font-family="sans-serif" font-size="14" lengthAdjust="spacingAndGlyphs" textLength="196">Developer using a Kotlin DSL</text><text x="203.5" y="119.188" fill="#FFF" font-family="sans-serif" font-size="14" lengthAdjust="spacingAndGlyphs" textLength="129">based Gradle build</text><rect style="stroke:#8a8a8a;stroke-width:1.5" width="216" height="102.441" x="6" y="260.199" fill="#999"/><text x="61.5" y="281.801" fill="#FFF" font-family="sans-serif" font-size="12" font-style="italic" lengthAdjust="spacingAndGlyphs" textLength="105">«external_system»</text><text x="71" y="299.801" fill="#FFF" font-family="sans-serif" font-size="16" font-weight="bold" lengthAdjust="spacingAndGlyphs" textLength="86">IntelliJ IDE</text><text x="16" y="333.199" fill="#FFF" font-family="sans-serif" font-size="14" lengthAdjust="spacingAndGlyphs" textLength="192">IDEA or Android Studio with</text><text x="27.5" y="349.688" fill="#FFF" font-family="sans-serif" font-size="14" lengthAdjust="spacingAndGlyphs" textLength="173">the Kotlin plugin enabled</text><rect style="stroke:#8a8a8a;stroke-width:1.5" width="203" height="85.953" x="12.5" y="447.199" fill="#999"/><text x="61.5" y="468.801" fill="#FFF" font-family="sans-serif" font-size="12" font-style="italic" lengthAdjust="spacingAndGlyphs" textLength="105">«external_system»</text><text x="47" y="486.801" fill="#FFF" font-family="sans-serif" font-size="16" font-weight="bold" lengthAdjust="spacingAndGlyphs" textLength="134">Kotlin Toolchain</text><text x="22.5" y="520.199" fill="#FFF" font-family="sans-serif" font-size="14" lengthAdjust="spacingAndGlyphs" textLength="183">kotlinc, Gradle plugin etc...</text><rect style="stroke:#8a8a8a;stroke-width:1.5" width="220" height="102.441" x="284" y="439.199" fill="#999"/><text x="341.5" y="460.801" fill="#FFF" font-family="sans-serif" font-size="12" font-style="italic" lengthAdjust="spacingAndGlyphs" textLength="105">«external_system»</text><text x="317" y="478.801" fill="#FFF" font-family="sans-serif" font-size="16" font-weight="bold" lengthAdjust="spacingAndGlyphs" textLength="154">Gradle Build Cache</text><text x="294" y="512.199" fill="#FFF" font-family="sans-serif" font-size="14" lengthAdjust="spacingAndGlyphs" textLength="200">Local, Gradle Enterprise Build</text><text x="333" y="528.688" fill="#FFF" font-family="sans-serif" font-size="14" lengthAdjust="spacingAndGlyphs" textLength="122">Cache Node, etc...</text><path id="dev-gradle" fill="none" d="M351.8687,131.9102 C363.7807,141.2556 375.6052,151.7396 386.3058,163.2439 C391.6562,168.996 396.7255,175.0032 401.3844,181.2507 C403.7138,184.3745 405.9406,187.5583 408.0486,190.8003 C409.1026,192.4213 410.1269,194.0569 411.1195,195.7068 C411.6158,196.5317 412.1041,197.3603 412.5843,198.1923 C412.8244,198.6084 413.0624,199.0253 413.2984,199.4431 C413.4164,199.652 413.5338,199.8612 413.6508,200.0705 C413.7092,200.1752 413.7676,200.2799 413.8258,200.3847" style="stroke:#666;stroke-width:1"/><polygon fill="#666" points="413.826 200.385 412.952 190.575 411.398 196.014 405.959 194.459 413.826 200.385" style="stroke:#666;stroke-width:1"/><text x="440" y="175.268" fill="#666" font-family="sans-serif" font-size="13" font-weight="bold" lengthAdjust="spacingAndGlyphs" textLength="32">Uses</text><text x="409" y="189.611" fill="#666" font-family="sans-serif" font-size="12" font-style="italic" lengthAdjust="spacingAndGlyphs" textLength="94">[Command Line]</text><path id="gradleKotlinDsl-kotlinTools" fill="none" d="M309.5667,337.9973 C273.7534,365.8694 216.9909,410.0454 173.8231,443.6412" style="stroke:#666;stroke-width:1"/><polygon fill="#666" points="169.689 446.858 179.248 444.487 173.635 443.788 174.335 438.174 169.689 446.858" style="stroke:#666;stroke-width:1"/><text x="236" y="405.768" fill="#666" font-family="sans-serif" font-size="13" font-weight="bold" lengthAdjust="spacingAndGlyphs" textLength="32">Uses</text><path id="gradleKotlinDsl-buildCache" fill="none" d="M351.4855,337.9973 C358.5451,363.2707 369.3493,401.9497 378.2992,433.9903" style="stroke:#666;stroke-width:1"/><polygon fill="#666" points="379.719 439.072 381.15 429.328 378.373 434.257 373.445 431.481 379.719 439.072" style="stroke:#666;stroke-width:1"/><text x="371" y="405.768" fill="#666" font-family="sans-serif" font-size="13" font-weight="bold" lengthAdjust="spacingAndGlyphs" textLength="32">Uses</text><path id="dev-ide" fill="none" d="M233.8224,131.8546 C209.2989,168.5603 176.2781,217.9842 151.1112,255.6529" style="stroke:#666;stroke-width:1"/><polygon fill="#666" points="148.082 260.187 156.408 254.925 150.86 256.029 149.756 250.481 148.082 260.187" style="stroke:#666;stroke-width:1"/><text x="215" y="175.268" fill="#666" font-family="sans-serif" font-size="13" font-weight="bold" lengthAdjust="spacingAndGlyphs" textLength="32">Uses</text><text x="217" y="189.611" fill="#666" font-family="sans-serif" font-size="12" font-style="italic" lengthAdjust="spacingAndGlyphs" textLength="28">[GUI]</text><path id="gradle-ide" fill="none" d="M413.527,200.2384 C413.3694,200.0857 413.212,199.9339 413.0547,199.7829 C412.7401,199.4809 412.426,199.1824 412.1124,198.8873 C411.4852,198.2972 410.8599,197.7209 410.2364,197.1581 C408.9893,196.0325 407.7496,194.961 406.5161,193.9418 C404.0491,191.9035 401.6072,190.0744 399.1829,188.4398 C394.3343,185.1706 389.5561,182.6793 384.7879,180.8481 C375.2514,177.1856 365.7548,176.1633 355.8153,176.8377 C335.9363,178.1866 314.2855,186.3226 287,193.6992 C243.0135,205.5909 200.5774,234.0619 168.7427,259.9988" style="stroke:#666;stroke-width:1"/><polygon fill="#666" points="413.527 200.238 409.849 191.102 409.937 196.758 404.281 196.846 413.527 200.238" style="stroke:#666;stroke-width:1"/><text x="308" y="175.268" fill="#666" font-family="sans-serif" font-size="13" font-weight="bold" lengthAdjust="spacingAndGlyphs" textLength="32">Uses</text><text x="288" y="189.611" fill="#666" font-family="sans-serif" font-size="12" font-style="italic" lengthAdjust="spacingAndGlyphs" textLength="72">[Tooling API]</text><path id="ide-gradleKotlinDsl" fill="none" d="M222.2651,311.1992 C244.4173,311.1992 266.9038,311.1992 286.4218,311.1992" style="stroke:#666;stroke-width:1"/><polygon fill="#666" points="291.845 311.199 282.845 307.199 286.845 311.199 282.845 315.199 291.845 311.199" style="stroke:#666;stroke-width:1"/><text x="241" y="304.768" fill="#666" font-family="sans-serif" font-size="13" font-weight="bold" lengthAdjust="spacingAndGlyphs" textLength="32">Uses</text><path id="ide-kotlinTools" fill="none" d="M114,362.4934 C114,387.4736 114,417.3422 114,441.9104" style="stroke:#666;stroke-width:1"/><polygon fill="#666" points="114 447.069 118 438.069 114 442.069 110 438.069 114 447.069" style="stroke:#666;stroke-width:1"/><text x="115" y="405.768" fill="#666" font-family="sans-serif" font-size="13" font-weight="bold" lengthAdjust="spacingAndGlyphs" textLength="32">Uses</text><path id="kotlinTools-buildCache" fill="none" d="M215.8785,490.1992 C236.2035,490.1992 257.6889,490.1992 278.4355,490.1992" style="stroke:#666;stroke-width:1"/><polygon fill="#666" points="283.693 490.199 274.693 486.199 278.693 490.199 274.693 494.199 283.693 490.199" style="stroke:#666;stroke-width:1"/><text x="233.75" y="483.768" fill="#666" font-family="sans-serif" font-size="13" font-weight="bold" lengthAdjust="spacingAndGlyphs" textLength="32">Uses</text></g></svg>