<svg xmlns="http://www.w3.org/2000/svg" xmlns:xlink="http://www.w3.org/1999/xlink" width="1130" height="1295" contentScriptType="application/ecmascript" contentStyleType="text/css" style="width:1130px;height:1295px" preserveAspectRatio="none" version="1.1" viewBox="0 0 1130 1295" zoomAndPan="magnify"><g><text x="376.5" y="17.402" fill="#000" font-family="sans-serif" font-size="18" lengthAdjust="spacingAndGlyphs" textLength="384">Container diagram for the Gradle Kotlin DSL</text><rect style="stroke:#444;stroke-width:1;stroke-dasharray:7,7" width="520" height="1084" x="14" y="200.199" fill="#FFF"/><text x="234" y="215.734" fill="#000" font-family="sans-serif" font-size="14" font-style="italic" lengthAdjust="spacingAndGlyphs" textLength="80">«boundary»</text><text x="217.5" y="232.223" fill="#444" font-family="sans-serif" font-size="14" font-weight="bold" lengthAdjust="spacingAndGlyphs" textLength="113">Gradle [System]</text><rect style="stroke:#444;stroke-width:1;stroke-dasharray:7,7" width="504" height="782.5" x="22" y="493.699" fill="#FFF"/><text x="234" y="509.234" fill="#000" font-family="sans-serif" font-size="14" font-style="italic" lengthAdjust="spacingAndGlyphs" textLength="80">«boundary»</text><text x="177" y="525.723" fill="#444" font-family="sans-serif" font-size="14" font-weight="bold" lengthAdjust="spacingAndGlyphs" textLength="194">Gradle Kotlin DSL [System]</text><rect style="stroke:#444;stroke-width:1;stroke-dasharray:7,7" width="498" height="153" x="545" y="490.199" fill="#FFF"/><text x="754" y="505.734" fill="#000" font-family="sans-serif" font-size="14" font-style="italic" lengthAdjust="spacingAndGlyphs" textLength="80">«boundary»</text><text x="721.5" y="522.223" fill="#444" font-family="sans-serif" font-size="14" font-weight="bold" lengthAdjust="spacingAndGlyphs" textLength="145">IntelliJ IDE [System]</text><rect style="stroke:#444;stroke-width:1;stroke-dasharray:7,7" width="458" height="170" x="542" y="704.199" fill="#FFF"/><text x="731" y="719.734" fill="#000" font-family="sans-serif" font-size="14" font-style="italic" lengthAdjust="spacingAndGlyphs" textLength="80">«boundary»</text><text x="677.5" y="736.223" fill="#444" font-family="sans-serif" font-size="14" font-weight="bold" lengthAdjust="spacingAndGlyphs" textLength="187">Kotlin Toolchain [System]</text><rect style="stroke:#8a8a8a;stroke-width:1.5" width="168" height="85.953" x="332" y="243.199" fill="#999"/><text x="363.5" y="264.801" fill="#FFF" font-family="sans-serif" font-size="12" font-style="italic" lengthAdjust="spacingAndGlyphs" textLength="105">«external_system»</text><text x="345.5" y="282.801" fill="#FFF" font-family="sans-serif" font-size="16" font-weight="bold" lengthAdjust="spacingAndGlyphs" textLength="141">Gradle Build Tool</text><text x="342" y="316.199" fill="#FFF" font-family="sans-serif" font-size="14" lengthAdjust="spacingAndGlyphs" textLength="148">The Gradle Build Tool</text><rect style="stroke:#3c7fc0;stroke-width:1.5" width="220" height="67.109" x="49" y="550.699" fill="#438DD5"/><text x="126.5" y="572.301" fill="#FFF" font-family="sans-serif" font-size="12" font-style="italic" lengthAdjust="spacingAndGlyphs" textLength="65">«container»</text><text x="80.5" y="590.301" fill="#FFF" font-family="sans-serif" font-size="16" font-weight="bold" lengthAdjust="spacingAndGlyphs" textLength="157">Kotlin DSL Provider</text><text x="59" y="605.277" fill="#FFF" font-family="sans-serif" font-size="12" font-style="italic" lengthAdjust="spacingAndGlyphs" textLength="200">[The core of the Gradle Kotlin DSL]</text><rect style="stroke:#3c7fc0;stroke-width:1.5" width="207" height="81.242" x="30.5" y="1177.699" fill="#438DD5"/><text x="101.5" y="1199.301" fill="#FFF" font-family="sans-serif" font-size="12" font-style="italic" lengthAdjust="spacingAndGlyphs" textLength="65">«container»</text><text x="40.5" y="1217.301" fill="#FFF" font-family="sans-serif" font-size="16" font-weight="bold" lengthAdjust="spacingAndGlyphs" textLength="187">IDE ToolingAPI Models</text><text x="40.5" y="1232.277" fill="#FFF" font-family="sans-serif" font-size="12" font-style="italic" lengthAdjust="spacingAndGlyphs" textLength="183">[Calculates script dependencies</text><text x="44" y="1246.41" fill="#FFF" font-family="sans-serif" font-size="12" font-style="italic" lengthAdjust="spacingAndGlyphs" textLength="180">and error reporting for editors]</text><rect style="stroke:#3c7fc0;stroke-width:1.5" width="180" height="95.375" x="338" y="536.699" fill="#438DD5"/><text x="395.5" y="558.301" fill="#FFF" font-family="sans-serif" font-size="12" font-style="italic" lengthAdjust="spacingAndGlyphs" textLength="65">«container»</text><text x="348" y="576.301" fill="#FFF" font-family="sans-serif" font-size="16" font-weight="bold" lengthAdjust="spacingAndGlyphs" textLength="160">`kotlin-dsl` Plugin</text><text x="353" y="591.277" fill="#FFF" font-family="sans-serif" font-size="12" font-style="italic" lengthAdjust="spacingAndGlyphs" textLength="146">[Gradle Plugin to develop</text><text x="350" y="605.41" fill="#FFF" font-family="sans-serif" font-size="12" font-style="italic" lengthAdjust="spacingAndGlyphs" textLength="152">Kotlin-based projects that</text><text x="365.5" y="619.543" fill="#FFF" font-family="sans-serif" font-size="12" font-style="italic" lengthAdjust="spacingAndGlyphs" textLength="125">contribute build logic]</text><rect style="stroke:#3c7fc0;stroke-width:1.5" width="210" height="100.086" x="308" y="1168.199" fill="#438DD5"/><text x="380.5" y="1189.801" fill="#FFF" font-family="sans-serif" font-size="12" font-style="italic" lengthAdjust="spacingAndGlyphs" textLength="65">«container»</text><text x="342.5" y="1207.801" fill="#FFF" font-family="sans-serif" font-size="16" font-weight="bold" lengthAdjust="spacingAndGlyphs" textLength="136">Kotlin DSL Script</text><text x="318" y="1226.645" fill="#FFF" font-family="sans-serif" font-size="16" font-weight="bold" lengthAdjust="spacingAndGlyphs" textLength="190">Dependencies Resolver</text><text x="331" y="1241.621" fill="#FFF" font-family="sans-serif" font-size="12" font-style="italic" lengthAdjust="spacingAndGlyphs" textLength="160">[Loaded from IntelliJ Project</text><text x="369" y="1255.754" fill="#FFF" font-family="sans-serif" font-size="12" font-style="italic" lengthAdjust="spacingAndGlyphs" textLength="88">Gradle version]</text><rect style="stroke:#8a8a8a;stroke-width:1.5" width="210" height="102.441" x="553" y="533.199" fill="#999"/><text x="605.5" y="554.801" fill="#FFF" font-family="sans-serif" font-size="12" font-style="italic" lengthAdjust="spacingAndGlyphs" textLength="105">«external_system»</text><text x="563" y="572.801" fill="#FFF" font-family="sans-serif" font-size="16" font-weight="bold" lengthAdjust="spacingAndGlyphs" textLength="190">.gradle.kts script editor</text><text x="569" y="606.199" fill="#FFF" font-family="sans-serif" font-size="14" lengthAdjust="spacingAndGlyphs" textLength="174">In IntelliJ IDEA or Android</text><text x="636" y="622.688" fill="#FFF" font-family="sans-serif" font-size="14" lengthAdjust="spacingAndGlyphs" textLength="44">Studio</text><rect style="stroke:#8a8a8a;stroke-width:1.5" width="203" height="85.953" x="831.5" y="541.199" fill="#999"/><text x="880.5" y="562.801" fill="#FFF" font-family="sans-serif" font-size="12" font-style="italic" lengthAdjust="spacingAndGlyphs" textLength="105">«external_system»</text><text x="851" y="580.801" fill="#FFF" font-family="sans-serif" font-size="16" font-weight="bold" lengthAdjust="spacingAndGlyphs" textLength="164">IntelliJ Kotlin Plugin</text><text x="841.5" y="614.199" fill="#FFF" font-family="sans-serif" font-size="14" lengthAdjust="spacingAndGlyphs" textLength="183">for IDEA or Android Studio</text><rect style="stroke:#8a8a8a;stroke-width:1.5" width="201" height="118.93" x="790.5" y="747.199" fill="#999"/><text x="838.5" y="768.801" fill="#FFF" font-family="sans-serif" font-size="12" font-style="italic" lengthAdjust="spacingAndGlyphs" textLength="105">«external_system»</text><text x="809" y="786.801" fill="#FFF" font-family="sans-serif" font-size="16" font-weight="bold" lengthAdjust="spacingAndGlyphs" textLength="164">Kotlin Gradle Plugin</text><text x="876" y="820.199" fill="#FFF" font-family="sans-serif" font-size="14" lengthAdjust="spacingAndGlyphs" textLength="26">The</text><text x="800.5" y="836.688" fill="#FFF" font-family="sans-serif" font-size="14" lengthAdjust="spacingAndGlyphs" textLength="177">`org.jetbrains.kotlin.jvm`</text><text x="844.5" y="853.176" fill="#FFF" font-family="sans-serif" font-size="14" lengthAdjust="spacingAndGlyphs" textLength="93">Gradle plugin</text><rect style="stroke:#8a8a8a;stroke-width:1.5" width="147" height="85.953" x="550.5" y="763.699" fill="#999"/><text x="571.5" y="785.301" fill="#FFF" font-family="sans-serif" font-size="12" font-style="italic" lengthAdjust="spacingAndGlyphs" textLength="105">«external_system»</text><text x="560.5" y="803.301" fill="#FFF" font-family="sans-serif" font-size="16" font-weight="bold" lengthAdjust="spacingAndGlyphs" textLength="127">Kotlin Compiler</text><text x="601" y="836.699" fill="#FFF" font-family="sans-serif" font-size="14" lengthAdjust="spacingAndGlyphs" textLength="46">kotlinc</text><rect style="stroke:#073b6f;stroke-width:1.5" width="220" height="102.441" x="407" y="29.199" fill="#08427B"/><text x="491" y="50.801" fill="#FFF" font-family="sans-serif" font-size="12" font-style="italic" lengthAdjust="spacingAndGlyphs" textLength="52">«person»</text><text x="476" y="68.801" fill="#FFF" font-family="sans-serif" font-size="16" font-weight="bold" lengthAdjust="spacingAndGlyphs" textLength="82">Developer</text><text x="417" y="102.199" fill="#FFF" font-family="sans-serif" font-size="14" lengthAdjust="spacingAndGlyphs" textLength="196">Developer using a Kotlin DSL</text><text x="452.5" y="118.688" fill="#FFF" font-family="sans-serif" font-size="14" lengthAdjust="spacingAndGlyphs" textLength="129">based Gradle build</text><rect style="stroke:#8a8a8a;stroke-width:1.5" width="220" height="102.441" x="649" y="943.199" fill="#999"/><text x="706.5" y="964.801" fill="#FFF" font-family="sans-serif" font-size="12" font-style="italic" lengthAdjust="spacingAndGlyphs" textLength="105">«external_system»</text><text x="682" y="982.801" fill="#FFF" font-family="sans-serif" font-size="16" font-weight="bold" lengthAdjust="spacingAndGlyphs" textLength="154">Gradle Build Cache</text><text x="659" y="1016.199" fill="#FFF" font-family="sans-serif" font-size="14" lengthAdjust="spacingAndGlyphs" textLength="200">Local, Gradle Enterprise Build</text><text x="698" y="1032.688" fill="#FFF" font-family="sans-serif" font-size="14" lengthAdjust="spacingAndGlyphs" textLength="122">Cache Node, etc...</text><path id="provider-tapiBuilder" fill="none" d="M155.6613,622.7041 C152.1104,667.0391 147,742.0721 147,806.6992 C147,806.6992 147,806.6992 147,1106.6992 C147,1130.2806 144.0957,1156.4798 141.0327,1177.5539" style="stroke:#666;stroke-width:1"/><polygon fill="#666" points="156.065 617.717 151.352 626.365 155.661 622.701 159.326 627.01 156.065 617.717" style="stroke:#666;stroke-width:1"/><text x="148" y="999.268" fill="#666" font-family="sans-serif" font-size="13" font-weight="bold" lengthAdjust="spacingAndGlyphs" textLength="32">Uses</text><path id="plugin-provider" fill="none" d="M337.683,584.1992 C317.3414,584.1992 295.4829,584.1992 274.2756,584.1992" style="stroke:#666;stroke-width:1"/><polygon fill="#666" points="269.189 584.199 278.189 588.199 274.189 584.199 278.189 580.199 269.189 584.199" style="stroke:#666;stroke-width:1"/><text x="287.5" y="577.768" fill="#666" font-family="sans-serif" font-size="13" font-weight="bold" lengthAdjust="spacingAndGlyphs" textLength="32">Uses</text><path id="resolver-tapiBuilder" fill="none" d="M307.6277,1218.1992 C286.4901,1218.1992 264.2388,1218.1992 242.9815,1218.1992" style="stroke:#666;stroke-width:1"/><polygon fill="#666" points="237.889 1218.199 246.889 1222.199 242.889 1218.199 246.889 1214.199 237.889 1218.199" style="stroke:#666;stroke-width:1"/><text x="256.75" y="1197.768" fill="#666" font-family="sans-serif" font-size="13" font-weight="bold" lengthAdjust="spacingAndGlyphs" textLength="32">Uses</text><text x="255.75" y="1212.111" fill="#666" font-family="sans-serif" font-size="12" font-style="italic" lengthAdjust="spacingAndGlyphs" textLength="34">[TAPI]</text><path id="gradle-provider" fill="none" d="M378.9045,329.2127 C328.5419,387.6098 239.3412,491.0409 191.4865,546.5301" style="stroke:#666;stroke-width:1"/><polygon fill="#666" points="188.113 550.441 197.02 546.238 191.379 546.655 190.962 541.013 188.113 550.441" style="stroke:#666;stroke-width:1"/><text x="340" y="433.768" fill="#666" font-family="sans-serif" font-size="13" font-weight="bold" lengthAdjust="spacingAndGlyphs" textLength="32">Uses</text><text x="301" y="448.111" fill="#666" font-family="sans-serif" font-size="12" font-style="italic" lengthAdjust="spacingAndGlyphs" textLength="110">[Script compilation]</text><path id="gradle-plugin" fill="none" d="M417.7321,329.2127 C419.8837,382.6439 423.5534,473.7755 425.8735,531.3912" style="stroke:#666;stroke-width:1"/><polygon fill="#666" points="426.08 536.514 429.714 527.361 425.878 531.518 421.721 527.683 426.08 536.514" style="stroke:#666;stroke-width:1"/><text x="461" y="433.768" fill="#666" font-family="sans-serif" font-size="13" font-weight="bold" lengthAdjust="spacingAndGlyphs" textLength="32">Uses</text><text x="423" y="448.111" fill="#666" font-family="sans-serif" font-size="12" font-style="italic" lengthAdjust="spacingAndGlyphs" textLength="108">[e.g. in `buildSrc`]</text><path id="editor-ideKotlin" fill="none" d="M763.1428,584.1992 C783.6908,584.1992 805.2609,584.1992 825.8725,584.1992" style="stroke:#666;stroke-width:1"/><polygon fill="#666" points="831.091 584.199 822.091 580.199 826.091 584.199 822.091 588.199 831.091 584.199" style="stroke:#666;stroke-width:1"/><text x="781.25" y="577.768" fill="#666" font-family="sans-serif" font-size="13" font-weight="bold" lengthAdjust="spacingAndGlyphs" textLength="32">Uses</text><path id="kgp-kotlinc" fill="none" d="M790.0929,806.6992 C761.1822,806.6992 730.0993,806.6992 702.7313,806.6992" style="stroke:#666;stroke-width:1"/><polygon fill="#666" points="697.666 806.699 706.666 810.699 702.666 806.699 706.666 802.699 697.666 806.699" style="stroke:#666;stroke-width:1"/><text x="728" y="786.268" fill="#666" font-family="sans-serif" font-size="13" font-weight="bold" lengthAdjust="spacingAndGlyphs" textLength="32">Uses</text><text x="716" y="800.611" fill="#666" font-family="sans-serif" font-size="12" font-style="italic" lengthAdjust="spacingAndGlyphs" textLength="56">[Daemon]</text><path id="dev-gradle" fill="none" d="M491.9039,131.3852 C475.8669,164.0944 455.2081,206.2302 439.493,238.2828" style="stroke:#666;stroke-width:1"/><polygon fill="#666" points="437.211 242.936 444.765 236.617 439.413 238.447 437.582 233.095 437.211 242.936" style="stroke:#666;stroke-width:1"/><text x="507" y="174.768" fill="#666" font-family="sans-serif" font-size="13" font-weight="bold" lengthAdjust="spacingAndGlyphs" textLength="32">Uses</text><text x="476" y="189.111" fill="#666" font-family="sans-serif" font-size="12" font-style="italic" lengthAdjust="spacingAndGlyphs" textLength="94">[Command Line]</text><path id="dev-editor" fill="none" d="M561.8443,131.5187 C568.4015,140.9263 574.4612,151.0074 579,161.1992 C633.8692,284.4074 650.6382,444.2104 655.7566,527.7178" style="stroke:#666;stroke-width:1"/><polygon fill="#666" points="656.077 533.107 659.535 523.885 655.78 528.116 651.55 524.36 656.077 533.107" style="stroke:#666;stroke-width:1"/><text x="642" y="372.768" fill="#666" font-family="sans-serif" font-size="13" font-weight="bold" lengthAdjust="spacingAndGlyphs" textLength="32">Uses</text><text x="644" y="387.111" fill="#666" font-family="sans-serif" font-size="12" font-style="italic" lengthAdjust="spacingAndGlyphs" textLength="28">[GUI]</text><path id="provider-kotlinc" fill="none" d="M247.7365,617.7912 C271.4251,626.4086 297.087,635.4312 321,643.1992 C344.4137,650.8051 513.2023,691.027 534,704.1992 C556.3196,718.3353 576.278,739.6168 591.6945,759.1312" style="stroke:#666;stroke-width:1"/><polygon fill="#666" points="595.114 763.525 592.743 753.965 592.043 759.579 586.429 758.879 595.114 763.525" style="stroke:#666;stroke-width:1"/><text x="534" y="678.768" fill="#666" font-family="sans-serif" font-size="13" font-weight="bold" lengthAdjust="spacingAndGlyphs" textLength="32">Uses</text><text x="514" y="693.111" fill="#666" font-family="sans-serif" font-size="12" font-style="italic" lengthAdjust="spacingAndGlyphs" textLength="72">[Embedded]</text><path id="plugin-kgp" fill="none" d="M512.7112,631.7983 C520.8342,635.8318 529.0184,639.7003 537,643.1992 C613.5916,676.7746 638.9422,669.4315 715,704.1992 C740.5821,715.8933 767.2598,730.217 791.8819,744.4069" style="stroke:#666;stroke-width:1"/><polygon fill="#666" points="796.455 747.054 790.67 739.083 792.128 744.549 786.662 746.007 796.455 747.054" style="stroke:#666;stroke-width:1"/><text x="694" y="685.768" fill="#666" font-family="sans-serif" font-size="13" font-weight="bold" lengthAdjust="spacingAndGlyphs" textLength="51">Applies</text><path id="ideKotlin-kotlinc" fill="none" d="M873.0553,627.3633 C819.8589,665.6681 742.3623,721.4707 687.9803,760.6293" style="stroke:#666;stroke-width:1"/><polygon fill="#666" points="683.778 763.655 693.419 761.642 687.835 760.734 688.744 755.15 683.778 763.655" style="stroke:#666;stroke-width:1"/><text x="816" y="685.768" fill="#666" font-family="sans-serif" font-size="13" font-weight="bold" lengthAdjust="spacingAndGlyphs" textLength="32">Uses</text><path id="ideKotlin-resolver" fill="none" d="M969.9834,627.4194 C1002.6065,670.0649 1045,738.5862 1045,806.6992 C1045,806.6992 1045,806.6992 1045,1106.6992 C1045,1159.0622 704.1958,1194.6473 523.116,1209.8591" style="stroke:#666;stroke-width:1"/><polygon fill="#666" points="518.071 1210.281 527.374 1213.517 523.054 1209.864 526.707 1205.545 518.071 1210.281" style="stroke:#666;stroke-width:1"/><text x="1062" y="992.268" fill="#666" font-family="sans-serif" font-size="13" font-weight="bold" lengthAdjust="spacingAndGlyphs" textLength="40">Loads</text><text x="1046" y="1006.611" fill="#666" font-family="sans-serif" font-size="12" font-style="italic" lengthAdjust="spacingAndGlyphs" textLength="72">[Embedded]</text><path id="provider-buildCache" fill="none" d="M192.3496,618.0426 C250.721,675.96 376.9403,795.4411 500,874.1992 C544.8945,902.9316 597.7833,928.703 644.0241,948.9295" style="stroke:#666;stroke-width:1"/><polygon fill="#666" points="648.764 950.994 642.11 943.733 644.18 948.997 638.916 951.067 648.764 950.994" style="stroke:#666;stroke-width:1"/><text x="501" y="811.768" fill="#666" font-family="sans-serif" font-size="13" font-weight="bold" lengthAdjust="spacingAndGlyphs" textLength="32">Uses</text><path id="kgp-buildCache" fill="none" d="M849.053,866.283 C832.7074,889.5012 814.0815,915.9584 798.0273,938.7626" style="stroke:#666;stroke-width:1"/><polygon fill="#666" points="795.061 942.977 803.512 937.92 797.939 938.888 796.971 933.315 795.061 942.977" style="stroke:#666;stroke-width:1"/><text x="826" y="909.768" fill="#666" font-family="sans-serif" font-size="13" font-weight="bold" lengthAdjust="spacingAndGlyphs" textLength="32">Uses</text></g></svg>