<!--
  - Copyright 2023 the original author or authors.
  -
  - Licensed under the Apache License, Version 2.0 (the "License");
  - you may not use this file except in compliance with the License.
  - You may obtain a copy of the License at
  -
  -      http://www.apache.org/licenses/LICENSE-2.0
  -
  - Unless required by applicable law or agreed to in writing, software
  - distributed under the License is distributed on an "AS IS" BASIS,
  - WITHOUT WARRANTIES OR CONDITIONS OF ANY KIND, either express or implied.
  - See the License for the specific language governing permissions and
  - limitations under the License.
  -->

<svg xmlns="http://www.w3.org/2000/svg" viewBox="0 0 16 208"><desc>Octicons v11.2.0 by GitHub - https://primer.style/octicons/ - License: MIT</desc><symbol id="icon-alert" viewBox="0 0 16 16"><path d="M8.22 1.754a.25.25 0 00-.44 0L1.698 13.132a.25.25 0 00.22.368h12.164a.25.25 0 00.22-.368L8.22 1.754zm-1.763-.707c.659-1.234 2.427-1.234 3.086 0l6.082 11.378A1.75 1.75 0 0114.082 15H1.918a1.75 1.75 0 01-1.543-2.575L6.457 1.047zM9 11a1 1 0 11-2 0 1 1 0 012 0zm-.25-5.25a.75.75 0 00-1.5 0v2.5a.75.75 0 001.5 0v-2.5z" fill-rule="evenodd"/></symbol><symbol id="icon-chevron-down" viewBox="0 0 16 16"><path d="M12.78 5.345a.75.75 0 010 1.06l-4.25 4.25a.75.75 0 01-1.06 0l-4.25-4.25a.75.75 0 011.06-1.06L8 9.065l3.72-3.72a.75.75 0 011.06 0z" fill-rule="evenodd"/></symbol><symbol id="icon-chevron-right" viewBox="0 0 16 16"><path d="M5.345 3.22a.75.75 0 011.06 0l4.25 4.25a.75.75 0 010 1.06l-4.25 4.25a.75.75 0 01-1.06-1.06L9.065 8l-3.72-3.72a.75.75 0 010-1.06z" fill-rule="evenodd"/></symbol><symbol id="icon-clippy" viewBox="0 0 16 16"><path d="M5.75 1a.75.75 0 00-.75.75v3c0 .414.336.75.75.75h4.5a.75.75 0 00.75-.75v-3a.75.75 0 00-.75-.75h-4.5zm.75 3V2.5h3V4h-3zm-2.874-.467a.75.75 0 00-.752-1.298A1.75 1.75 0 002 3.75v9.5c0 .966.784 1.75 1.75 1.75h8.5A1.75 1.75 0 0014 13.25v-9.5a1.75 1.75 0 00-.874-1.515.75.75 0 10-.752 1.298.25.25 0 01.126.217v9.5a.25.25 0 01-.25.25h-8.5a.25.25 0 01-.25-.25v-9.5a.25.25 0 01.126-.217z" fill-rule="evenodd"/></symbol><symbol id="icon-comment-discussion" viewBox="0 0 16 16"><path d="M1.5 2.75a.25.25 0 01.25-.25h8.5a.25.25 0 01.25.25v5.5a.25.25 0 01-.25.25h-3.5a.75.75 0 00-.53.22L3.5 11.44V9.25a.75.75 0 00-.75-.75h-1a.25.25 0 01-.25-.25v-5.5zM1.75 1A1.75 1.75 0 000 2.75v5.5C0 9.216.784 10 1.75 10H2v1.543a1.457 1.457 0 002.487 1.03L7.061 10h3.189A1.75 1.75 0 0012 8.25v-5.5A1.75 1.75 0 0010.25 1h-8.5zM14.5 4.75a.25.25 0 00-.25-.25h-.5a.75.75 0 110-1.5h.5c.966 0 1.75.784 1.75 1.75v5.5A1.75 1.75 0 0114.25 12H14v1.543a1.457 1.457 0 01-2.487 1.03L9.22 12.28a.75.75 0 111.06-1.06l2.22 2.22v-2.19a.75.75 0 01.75-.75h1a.25.25 0 00.25-.25v-5.5z" fill-rule="evenodd"/></symbol><symbol id="icon-flame" viewBox="0 0 16 16"><path d="M7.998 14.5c2.832 0 5-1.98 5-4.5 0-1.463-.68-2.19-1.879-3.383l-.036-.037c-1.013-1.008-2.3-2.29-2.834-4.434-.322.256-.63.579-.864.953-.432.696-.621 1.58-.046 2.73.473.947.67 2.284-.278 3.232-.61.61-1.545.84-2.403.633a2.788 2.788 0 01-1.436-.874A3.21 3.21 0 003 10c0 2.53 2.164 4.5 4.998 4.5zM9.533.753C9.496.34 9.16.009 8.77.146 7.035.75 4.34 3.187 5.997 6.5c.344.689.285 1.218.003 1.5-.419.419-1.54.487-2.04-.832-.173-.454-.659-.762-1.035-.454C2.036 7.44 1.5 8.702 1.5 10c0 3.512 2.998 6 6.498 6s6.5-2.5 6.5-6c0-2.137-1.128-3.26-2.312-4.438-1.19-1.184-2.436-2.425-2.653-4.81z" fill-rule="evenodd"/></symbol><symbol id="icon-hash" viewBox="0 0 16 16"><path d="M6.368 1.01a.75.75 0 01.623.859L6.57 4.5h3.98l.46-2.868a.75.75 0 011.48.237L12.07 4.5h2.18a.75.75 0 010 1.5h-2.42l-.64 4h2.56a.75.75 0 010 1.5h-2.8l-.46 2.869a.75.75 0 01-1.48-.237l.42-2.632H5.45l-.46 2.869a.75.75 0 01-1.48-.237l.42-2.632H1.75a.75.75 0 010-1.5h2.42l.64-4H2.25a.75.75 0 010-1.5h2.8l.46-2.868a.75.75 0 01.858-.622zM9.67 10l.64-4H6.33l-.64 4h3.98z" fill-rule="evenodd"/></symbol><symbol id="icon-info" viewBox="0 0 16 16"><path d="M8 1.5a6.5 6.5 0 100 13 6.5 6.5 0 000-13zM0 8a8 8 0 1116 0A8 8 0 010 8zm6.5-.25A.75.75 0 017.25 7h1a.75.75 0 01.75.75v2.75h.25a.75.75 0 010 1.5h-2a.75.75 0 010-1.5h.25v-2h-.25a.75.75 0 01-.75-.75zM8 6a1 1 0 100-2 1 1 0 000 2z" fill-rule="evenodd"/></symbol><symbol id="icon-light-bulb" viewBox="0 0 16 16"><path d="M8 1.5c-2.363 0-4 1.69-4 3.75 0 .984.424 1.625.984 2.304l.214.253c.223.264.47.556.673.848.284.411.537.896.621 1.49a.75.75 0 01-1.484.211c-.04-.282-.163-.547-.37-.847a8.695 8.695 0 00-.542-.68c-.084-.1-.173-.205-.268-.32C3.201 7.75 2.5 6.766 2.5 5.25 2.5 2.31 4.863 0 8 0s5.5 2.31 5.5 5.25c0 1.516-.701 2.5-1.328 3.259-.095.115-.184.22-.268.319-.207.245-.383.453-.541.681-.208.3-.33.565-.37.847a.75.75 0 01-1.485-.212c.084-.593.337-1.078.621-1.489.203-.292.45-.584.673-.848.075-.088.147-.173.213-.253.561-.679.985-1.32.985-2.304 0-2.06-1.637-3.75-4-3.75zM6 15.25a.75.75 0 01.75-.75h2.5a.75.75 0 010 1.5h-2.5a.75.75 0 01-.75-.75zM5.75 12a.75.75 0 000 1.5h4.5a.75.75 0 000-1.5h-4.5z" fill-rule="evenodd"/></symbol><symbol id="icon-mail" viewBox="0 0 16 16"><path d="M1.75 2A1.75 1.75 0 000 3.75v.736a.75.75 0 000 .027v7.737C0 13.216.784 14 1.75 14h12.5A1.75 1.75 0 0016 12.25v-8.5A1.75 1.75 0 0014.25 2H1.75zM14.5 4.07v-.32a.25.25 0 00-.25-.25H1.75a.25.25 0 00-.25.25v.32L8 7.88l6.5-3.81zm-13 1.74v6.441c0 .138.112.25.25.25h12.5a.25.25 0 00.25-.25V5.809L8.38 9.397a.75.75 0 01-.76 0L1.5 5.809z" fill-rule="evenodd"/></symbol><symbol id="icon-mark-github" viewBox="0 0 16 16"><path d="M8 0C3.58 0 0 3.58 0 8c0 3.54 2.29 6.53 5.47 7.59.4.07.55-.17.55-.38 0-.19-.01-.82-.01-1.49-2.01.37-2.53-.49-2.69-.94-.09-.23-.48-.94-.82-1.13-.28-.15-.68-.52-.01-.53.63-.01 1.08.58 1.23.82.72 1.21 1.87.87 2.33.66.07-.52.28-.87.51-1.07-1.78-.2-3.64-.89-3.64-3.95 0-.87.31-1.59.82-2.15-.08-.2-.36-1.02.08-2.12 0 0 .67-.21 2.2.82.64-.18 1.32-.27 2-.27.68 0 1.36.09 2 .27 1.53-1.04 2.2-.82 2.2-.82.44 1.1.16 1.92.08 2.12.51.56.82 1.27.82 2.15 0 3.07-1.87 3.75-3.65 3.95.29.25.54.73.54 1.48 0 1.07-.01 1.93-.01 2.2 0 .21.15.46.55.38A8.013 8.013 0 0016 8c0-4.42-3.58-8-8-8z" fill-rule="evenodd"/></symbol><symbol id="icon-stop" viewBox="0 0 16 16"><path d="M4.47.22A.75.75 0 015 0h6a.75.75 0 01.53.22l4.25 4.25c.141.14.22.331.22.53v6a.75.75 0 01-.22.53l-4.25 4.25A.75.75 0 0111 16H5a.75.75 0 01-.53-.22L.22 11.53A.75.75 0 010 11V5a.75.75 0 01.22-.53L4.47.22zm.84 1.28L1.5 5.31v5.38l3.81 3.81h5.38l3.81-3.81V5.31L10.69 1.5H5.31zM8 4a.75.75 0 01.75.75v3.5a.75.75 0 01-1.5 0v-3.5A.75.75 0 018 4zm0 8a1 1 0 100-2 1 1 0 000 2z" fill-rule="evenodd"/></symbol><symbol id="icon-tasklist" viewBox="0 0 16 16"><path d="M2.5 2.75a.25.25 0 01.25-.25h10.5a.25.25 0 01.25.25v10.5a.25.25 0 01-.25.25H2.75a.25.25 0 01-.25-.25V2.75zM2.75 1A1.75 1.75 0 001 2.75v10.5c0 .966.784 1.75 1.75 1.75h10.5A1.75 1.75 0 0015 13.25V2.75A1.75 1.75 0 0013.25 1H2.75zm9.03 5.28a.75.75 0 00-1.06-1.06L6.75 9.19 5.28 7.72a.75.75 0 00-1.06 1.06l2 2a.75.75 0 001.06 0l4.5-4.5z" fill-rule="evenodd"/></symbol><symbol id="icon-tasklist-unchecked" viewBox="0 0 16 16"><path d="M2.75 1A1.75 1.75 0 001 2.75v10.5c0 .966.784 1.75 1.75 1.75h10.5A1.75 1.75 0 0015 13.25V2.75A1.75 1.75 0 0013.25 1H2.75zm-.014 1.5a.25.25 0 01.014 0h10.5a.25.25 0 01.25.25v10.5a.25.25 0 01-.25.25H2.75a.25.25 0 01-.25-.25V2.75a.25.25 0 01.236-.25z" fill-rule="evenodd"/></symbol><symbol id="icon-triangle-down" viewBox="0 0 16 16"><path d="M4.427 7.427l3.396 3.396a.25.25 0 00.354 0l3.396-3.396A.25.25 0 0011.396 7H4.604a.25.25 0 00-.177.427z" fill-rule="evenodd"/></symbol><symbol id="icon-triangle-right" viewBox="0 0 16 16"><path d="M6.427 4.427l3.396 3.396a.25.25 0 010 .354l-3.396 3.396A.25.25 0 016 11.396V4.604a.25.25 0 01.427-.177z" fill-rule="evenodd"/></symbol><use href="#icon-alert" width="16" height="16"/><view id="view-alert" viewBox="0 0 16 16"/><use href="#icon-chevron-down" width="16" height="16" y="16"/><view id="view-chevron-down" viewBox="0 16 16 16"/><use href="#icon-chevron-right" width="16" height="16" y="32"/><view id="view-chevron-right" viewBox="0 32 16 16"/><use href="#icon-clippy" width="16" height="16" y="48"/><view id="view-clippy" viewBox="0 48 16 16"/><use href="#icon-comment-discussion" width="16" height="16" y="64"/><view id="view-comment-discussion" viewBox="0 64 16 16"/><use href="#icon-flame" width="16" height="16" y="80"/><view id="view-flame" viewBox="0 80 16 16"/><use href="#icon-hash" width="16" height="16" y="96"/><view id="view-hash" viewBox="0 96 16 16"/><use href="#icon-info" width="16" height="16" y="112"/><view id="view-info" viewBox="0 112 16 16"/><use href="#icon-light-bulb" width="16" height="16" y="128"/><view id="view-light-bulb" viewBox="0 128 16 16"/><use href="#icon-mail" width="16" height="16" y="144"/><view id="view-mail" viewBox="0 144 16 16"/><use href="#icon-mark-github" width="16" height="16" y="160"/><view id="view-mark-github" viewBox="0 160 16 16"/><use href="#icon-stop" width="16" height="16" y="176"/><view id="view-stop" viewBox="0 176 16 16"/><use href="#icon-tasklist" width="16" height="16" y="192"/><view id="view-tasklist" viewBox="0 192 16 16"/><use href="#icon-tasklist-unchecked" width="16" height="16" y="208"/><view id="view-tasklist-unchecked" viewBox="0 208 16 16"/><use href="#icon-triangle-down" width="16" height="16" y="224"/><view id="view-triangle-down" viewBox="0 224 16 16"/><use href="#icon-triangle-right" width="16" height="16" y="240"/><view id="view-triangle-right" viewBox="0 240 16 16"/></svg>
