<svg xmlns="http://www.w3.org/2000/svg" xml:space="preserve" id="ARTWORK" x="0" y="0" style="enable-background:new 0 0 102.886261 75.052299" version="1.1" viewBox="0 0 102.9 75.1">
  <style>
    .st0{fill:url(#ICON_00000088831890668800157600000002638584723837204667_)}
  </style>
  <switch>
    <g>
      <linearGradient id="ICON_00000039097421981941910130000010551188654853981872_" x1="4.7" x2="85.6" y1="-3.6" y2="74.7" gradientUnits="userSpaceOnUse">
        <stop offset="0" style="stop-color:#209bc4"/>
        <stop offset="1" style="stop-color:#4dc9c0"/>
      </linearGradient>
      <path id="ICON" d="M97.3 4.7a16.4 16.4 0 0 0-22.7-.3 1.6 1.6 0 0 0 0 2.2l2 2a1.6 1.6 0 0 0 2 .2 9.4 9.4 0 0 1 13 1.1 9.2 9.2 0 0 1-.7 12.9c-13 12.8-30.3-23.2-69.5-4.6a5.3 5.3 0 0 0-3 5.3c0 .8.3 1.5.7 2l6.7 11.6a5.3 5.3 0 0 0 7.2 2h.2-.1l3-1.6a69 69 0 0 0 9.3-7 1.7 1.7 0 0 1 2.2 0 1.5 1.5 0 0 1 0 2.2c-3 2.8-6.4 5.2-9.9 7.4h-.1l-3 1.7c-1.2.7-2.7 1-4.1 1a8.6 8.6 0 0 1-7.4-4.2l-6.4-10.9C4.5 36.3-2.9 53 1.1 73.7a1.5 1.5 0 0 0 1.5 1.4h7.2c.4 0 .8-.2 1-.4s.6-.7.6-1a10.5 10.5 0 0 1 10.5-9.2 10.7 10.7 0 0 1 10.6 9.1A1.5 1.5 0 0 0 34 75h7a1.6 1.6 0 0 0 1.5-1.4 10.5 10.5 0 0 1 10.6-9.1 10.7 10.7 0 0 1 10.5 9.1 1.5 1.5 0 0 0 1.5 1.4h7a1.6 1.6 0 0 0 1.6-1.5c.1-9.8 2.8-21 10.3-26.6 26.2-19.5 19.4-36.1 13.3-42.2zM70.6 34.1l-5-2.5A3 3 0 0 1 67 29a3.1 3.1 0 0 1 4.7 2.4 3 3 0 0 1-1.2 2.7z" style="fill:url(#ICON_00000039097421981941910130000010551188654853981872_)"/>
    </g>
  </switch>
</svg>
